<svg id="visual" viewBox="0 0 960 300" width="960" height="300" xmlns="http://www.w3.org/2000/svg" xmlns:xlink="http://www.w3.org/1999/xlink" version="1.1"><rect x="0" y="0" width="960" height="300" fill="#EC4899"></rect><path d="M0 220L16 222.3C32 224.7 64 229.3 96 230.7C128 232 160 230 192 217.5C224 205 256 182 288 180.7C320 179.3 352 199.7 384 201C416 202.3 448 184.7 480 187.3C512 190 544 213 576 212.3C608 211.7 640 187.3 672 179.2C704 171 736 179 768 190.5C800 202 832 217 864 221.3C896 225.7 928 219.3 944 216.2L960 213L960 0L944 0C928 0 896 0 864 0C832 0 800 0 768 0C736 0 704 0 672 0C640 0 608 0 576 0C544 0 512 0 480 0C448 0 416 0 384 0C352 0 320 0 288 0C256 0 224 0 192 0C160 0 128 0 96 0C64 0 32 0 16 0L0 0Z" fill="#be18c1"></path><path d="M0 196L16 189.3C32 182.7 64 169.3 96 167.8C128 166.3 160 176.7 192 175.5C224 174.3 256 161.7 288 153.3C320 145 352 141 384 139.7C416 138.3 448 139.7 480 138.7C512 137.7 544 134.3 576 134.8C608 135.3 640 139.7 672 139.3C704 139 736 134 768 139.2C800 144.3 832 159.7 864 168.3C896 177 928 179 944 180L960 181L960 0L944 0C928 0 896 0 864 0C832 0 800 0 768 0C736 0 704 0 672 0C640 0 608 0 576 0C544 0 512 0 480 0C448 0 416 0 384 0C352 0 320 0 288 0C256 0 224 0 192 0C160 0 128 0 96 0C64 0 32 0 16 0L0 0Z" fill="#de009e"></path><path d="M0 104L16 104.7C32 105.3 64 106.7 96 106C128 105.3 160 102.7 192 106.7C224 110.7 256 121.3 288 121.3C320 121.3 352 110.7 384 110.2C416 109.7 448 119.3 480 124.2C512 129 544 129 576 129.5C608 130 640 131 672 126.5C704 122 736 112 768 108.2C800 104.3 832 106.7 864 113.5C896 120.3 928 131.7 944 137.3L960 143L960 0L944 0C928 0 896 0 864 0C832 0 800 0 768 0C736 0 704 0 672 0C640 0 608 0 576 0C544 0 512 0 480 0C448 0 416 0 384 0C352 0 320 0 288 0C256 0 224 0 192 0C160 0 128 0 96 0C64 0 32 0 16 0L0 0Z" fill="#ee007d"></path><path d="M0 75L16 76.5C32 78 64 81 96 81.8C128 82.7 160 81.3 192 82.8C224 84.3 256 88.7 288 92C320 95.3 352 97.7 384 99C416 100.3 448 100.7 480 96C512 91.3 544 81.7 576 77.8C608 74 640 76 672 77.3C704 78.7 736 79.3 768 82C800 84.7 832 89.3 864 90.8C896 92.3 928 90.7 944 89.8L960 89L960 0L944 0C928 0 896 0 864 0C832 0 800 0 768 0C736 0 704 0 672 0C640 0 608 0 576 0C544 0 512 0 480 0C448 0 416 0 384 0C352 0 320 0 288 0C256 0 224 0 192 0C160 0 128 0 96 0C64 0 32 0 16 0L0 0Z" fill="#f3265f"></path><path d="M0 36L16 36.7C32 37.3 64 38.7 96 43.3C128 48 160 56 192 55.7C224 55.3 256 46.7 288 41.5C320 36.3 352 34.7 384 33.7C416 32.7 448 32.3 480 36.2C512 40 544 48 576 52.7C608 57.3 640 58.7 672 58.7C704 58.7 736 57.3 768 56.2C800 55 832 54 864 51C896 48 928 43 944 40.5L960 38L960 0L944 0C928 0 896 0 864 0C832 0 800 0 768 0C736 0 704 0 672 0C640 0 608 0 576 0C544 0 512 0 480 0C448 0 416 0 384 0C352 0 320 0 288 0C256 0 224 0 192 0C160 0 128 0 96 0C64 0 32 0 16 0L0 0Z" fill="#ef4444"></path></svg>