<svg id="visual" viewBox="0 0 960 300" width="960" height="300" xmlns="http://www.w3.org/2000/svg" xmlns:xlink="http://www.w3.org/1999/xlink" version="1.1"><rect x="0" y="0" width="960" height="300" fill="#8B5CF6"></rect><path d="M0 138L22.8 145C45.7 152 91.3 166 137 165.8C182.7 165.7 228.3 151.3 274 154.7C319.7 158 365.3 179 411.2 188.7C457 198.3 503 196.7 548.8 179.8C594.7 163 640.3 131 686 129.5C731.7 128 777.3 157 823 159.2C868.7 161.3 914.3 136.7 937.2 124.3L960 112L960 0L937.2 0C914.3 0 868.7 0 823 0C777.3 0 731.7 0 686 0C640.3 0 594.7 0 548.8 0C503 0 457 0 411.2 0C365.3 0 319.7 0 274 0C228.3 0 182.7 0 137 0C91.3 0 45.7 0 22.8 0L0 0Z" fill="#22C55E" stroke-linecap="round" stroke-linejoin="miter"></path></svg>